# xmcd
#
# Track frame offsets:
# 150
# 25400
# 46440
# 69170
# 92800
# 119117
# 140497
# 163492
# 184895
# 211325
# 235490
#
# Disc length: 3266 seconds
#
#
# Revision: 0
# Processed by: cddbd v1.5.1PL2 Copyright (c) Steve Scherf et al.
# Submitted via: FreeRIP 2.945 
#
DISCID=a90cc00b
DTITLE=90 M.P.H. - Mackframalama [Mad Sounds]
DYEAR=1994
DGENRE=Rap
TTITLE0=Mackframalama
TTITLE1=Heidi's A Ho
TTITLE2=Atta Dark
TTITLE3=Weakness
TTITLE4=Loop It
TTITLE5=Satisfied
TTITLE6=Whata Blessing
TTITLE7=Fly (I'm Loaded)
TTITLE8=Oh What A Night
TTITLE9=Hang Around
TTITLE10=Peace To Atlanta (Interlude)
EXTD=
EXTT0=
EXTT1=
EXTT2=
EXTT3=
EXTT4=
EXTT5=
EXTT6=
EXTT7=
EXTT8=
EXTT9=
EXTT10=
PLAYORDER=
